<svg rpl="" fill="white" height="20" icon-name="campaign" viewBox="0 0 20 20" width="20" xmlns="http://www.w3.org/2000/svg">
      <path d="M17.128 1.226a1.64 1.64 0 00-1.688.074l-.491.327C13.383 2.675 11.239 4.11 9.1 4.11H6.391A4.395 4.395 0 002 8.5c0 1.62.892 3.021 2.2 3.782v3.768c0 1.599 1.301 2.9 2.9 2.9s2.9-1.301 2.9-2.9v-3.074c1.83.316 3.603 1.497 4.949 2.398l.491.327a1.639 1.639 0 001.688.073c.538-.29.872-.849.872-1.458V2.684c0-.61-.334-1.169-.872-1.458zM6.391 5.91h1.81v5.181h-1.81A2.593 2.593 0 013.8 8.501 2.594 2.594 0 016.391 5.91zM7.1 17.15c-.606 0-1.1-.494-1.1-1.1v-3.199c.131.012.257.039.391.039h1.81v3.16c0 .606-.495 1.1-1.101 1.1zm9.1-3.106l-.25-.166c-1.559-1.043-3.628-2.429-5.95-2.729V5.851c2.322-.3 4.392-1.686 5.95-2.729l.25-.166v11.088z"></path>
    </svg>
