<svg rpl="" class="rpl-rtl-icon" fill="white" height="20" icon-name="open-book" viewBox="0 0 20 20" width="20" xmlns="http://www.w3.org/2000/svg">
      <path d="M18.278 2.632a2.265 2.265 0 00-1.698-.627c-2.95.165-4.67.827-6.58 1.987-1.91-1.16-3.63-1.822-6.581-1.987a2.273 2.273 0 00-1.697.627A2.327 2.327 0 001 4.312v9.428c0 1.23.966 2.241 2.198 2.302 2.724.136 4.175.715 5.761 1.67a2.019 2.019 0 002.082 0c1.586-.955 3.037-1.534 5.761-1.67a2.308 2.308 0 002.199-2.302V4.312c0-.632-.264-1.244-.723-1.68zM3.288 14.238a.507.507 0 01-.488-.498V4.312c0-.189.1-.312.16-.368a.487.487 0 01.333-.136h.027c2.625.147 4.043.692 5.78 1.752v10.158c-1.535-.819-3.177-1.348-5.813-1.48h.001zM17.2 13.74a.505.505 0 01-.488.498c-2.635.132-4.277.661-5.812 1.48V5.56c1.736-1.06 3.155-1.606 5.779-1.752a.47.47 0 01.361.136c.06.056.16.18.16.368v9.427zM12 6.95c1.131-.469 2.385-.765 4-.9v1.794c-1.678.152-2.842.5-4 1.081V6.95zm0 4.064c1.131-.469 2.385-.765 4-.9v1.794c-1.678.152-2.842.5-4 1.081v-1.975z"></path>
    </svg>
