<svg rpl="" fill="white" height="20" icon-name="business" viewBox="0 0 20 20" width="20" xmlns="http://www.w3.org/2000/svg">
      <path d="M15.7 4h-1.8v-.1C13.9 2.3 12.6 1 11 1H9C7.4 1 6.1 2.3 6.1 3.9V4H4.3C2.48 4 1 5.48 1 7.26v7.4C1 16.52 2.48 18 4.3 18h11.4c1.82 0 3.3-1.48 3.3-3.34v-7.4C19 5.48 17.52 4 15.7 4zm-7.8-.1c0-.61.49-1.1 1.1-1.1h2c.61 0 1.1.49 1.1 1.1v.4H7.9v-.4zM4.3 5.8h11.4c.83 0 1.5.67 1.5 1.5 0 2.17-1.77 3.9-3.94 3.9H10.9V9.85H9.1v1.35H6.74c-2.17 0-3.94-1.73-3.94-3.9 0-.83.67-1.5 1.5-1.5zm11.4 10.4H4.3c-.83 0-1.5-.67-1.5-1.5v-3.28A5.73 5.73 0 006.74 13H9.1v1.35h1.8V13h2.36c1.52 0 2.91-.6 3.94-1.58v3.28c0 .83-.67 1.5-1.5 1.5z"></path>
    </svg>
