<svg rpl="" fill="white" height="20" icon-name="game-controller" viewBox="0 0 20 20" width="20" xmlns="http://www.w3.org/2000/svg">
      <path d="M18.971 13.149s-.296-2.342-.63-4.771C17.601 3 13.131 3 11.661 3H8.34C6.87 3 2.398 3 1.658 8.379c-.333 2.423-.629 4.762-.63 4.766A3.412 3.412 0 004.41 17a3.402 3.402 0 003.24-2.352 1.083 1.083 0 011.031-.747h2.638c.471 0 .886.3 1.035.753a3.407 3.407 0 006.616-1.505h.002zm-2.17 1.503a1.59 1.59 0 01-1.21.548 1.603 1.603 0 01-1.529-1.112 2.882 2.882 0 00-2.743-1.987H8.681a2.886 2.886 0 00-2.746 1.995A1.6 1.6 0 014.41 15.2c-.47 0-.9-.194-1.21-.548a1.595 1.595 0 01-.386-1.276c0-.002.296-2.335.628-4.751.436-3.173 2.274-3.824 4.898-3.824h3.32c2.624 0 4.462.65 4.898 3.823.332 2.418.627 4.75.628 4.756.062.467-.075.919-.385 1.272zm-4.3-5.902a1.25 1.25 0 110-2.5 1.25 1.25 0 010 2.5zm-5.5 2a1.75 1.75 0 110-3.5 1.75 1.75 0 010 3.5zm8.75-.25a1.25 1.25 0 11-2.502 0 1.25 1.25 0 012.501 0z"></path>
    </svg>
