<svg rpl="" class="rpl-rtl-icon" fill="white" height="20" icon-name="help" viewBox="0 0 20 20" width="20" xmlns="http://www.w3.org/2000/svg">
      <path d="M10 2.8c3.97 0 7.2 3.23 7.2 7.2s-3.23 7.2-7.2 7.2-7.2-3.23-7.2-7.2S6.03 2.8 10 2.8zM10 1a9 9 0 10.001 18.001A9 9 0 0010 1zm-.57 13.8c-.17-.1-.31-.24-.41-.41-.1-.17-.15-.36-.15-.57 0-.21.05-.4.15-.57.1-.17.24-.31.41-.41.17-.1.36-.15.57-.15.21 0 .4.05.57.15.17.1.31.24.41.41.1.17.15.36.15.57 0 .21-.05.4-.15.57-.1.17-.24.31-.41.41-.17.1-.36.15-.57.15-.21 0-.4-.05-.57-.15zm2.99-8.28a2.3 2.3 0 00-.97-.82c-.41-.19-.87-.29-1.37-.29-.55 0-1.04.11-1.47.34-.43.23-.77.54-1.02.94-.25.4-.37.85-.38 1.35v.1h1.85v-.1c0-.16.05-.31.14-.44.09-.13.2-.24.35-.31.29-.15.65-.15.93-.01.14.07.24.15.32.27.08.11.11.24.11.38 0 .12-.03.24-.08.34-.06.11-.13.21-.22.3-.1.1-.23.22-.39.36-.24.21-.44.4-.59.56A2.192 2.192 0 009.06 11v.6h1.79v-.61c0-.18.03-.34.1-.49.07-.15.16-.28.27-.4.11-.12.26-.27.46-.44.23-.2.42-.39.56-.55.15-.16.27-.36.37-.59.1-.23.16-.5.16-.8 0-.45-.12-.85-.35-1.21v.01z"></path>
    </svg>
