<svg rpl="" fill="white" height="20" icon-name="admin" viewBox="0 0 20 20" width="20" xmlns="http://www.w3.org/2000/svg">
      <path d="M17.012 6.507v-.002c-.662 0-1.272.24-1.76.643-1.202-.8-2.7-1.31-4.333-1.455.048-.704.259-1.227.664-1.568.403-.34.967-.485 1.493-.534.329.429.84.71 1.423.71a1.8 1.8 0 10-1.664-2.484c-.785.08-1.675.315-2.403.923-.82.686-1.244 1.688-1.305 2.95-1.65.142-3.161.657-4.374 1.465a2.75 2.75 0 00-1.766-.648C1.393 6.506.1 7.896.1 9.61c0 1.244.68 2.316 1.663 2.812.095 3.604 3.749 6.504 8.244 6.504 4.495 0 8.153-2.903 8.244-6.51.975-.5 1.649-1.567 1.649-2.804 0-1.715-1.293-3.105-2.888-3.105v-.001zm-.534 4.793l-.027 1.07c-.066 2.622-2.957 4.755-6.444 4.755s-6.375-2.131-6.444-4.751l-.03-1.075-.96-.484c-.41-.206-.673-.68-.673-1.204 0-.72.488-1.305 1.088-1.305.278 0 .487.126.614.232l1.032.859 1.118-.745C6.79 7.959 8.07 7.547 9.455 7.458l.993-.013c1.419.074 2.735.489 3.807 1.202l1.114.74 1.03-.852a.97.97 0 01.55-.228h.062c.6 0 1.088.585 1.088 1.305 0 .522-.263.994-.67 1.202l-.951.486z"></path>
    </svg>
