<svg rpl="" fill="white" height="20" icon-name="author" viewBox="0 0 20 20" width="20" xmlns="http://www.w3.org/2000/svg">
      <path d="M17.536 2.465a5.006 5.006 0 00-7.072 0 4.98 4.98 0 00-1.458 3.503 1.934 1.934 0 00-.437-.023 1.903 1.903 0 00-1.388.759l-5.457 7.319c-.925 1.24-.806 2.87.288 3.965a3.015 3.015 0 002.14.908c.631 0 1.268-.205 1.826-.621l7.317-5.457a1.9 1.9 0 00.761-1.386 1.892 1.892 0 00-.022-.44 4.982 4.982 0 003.502-1.458 5.006 5.006 0 000-7.07zm-5.316 8.91l-7.318 5.457c-.633.474-1.249.25-1.617-.117-.366-.366-.589-.983-.117-1.616l5.457-7.32.15-.01L9.867 8.86l-2.162 2.162 1.273 1.272 2.162-2.162 1.091 1.09-.01.152zm4.043-3.112c-1.209 1.209-3.316 1.209-4.525 0a3.204 3.204 0 010-4.525 3.18 3.18 0 012.263-.938c.855 0 1.658.333 2.263.938a3.204 3.204 0 010 4.525z"></path>
    </svg>
