<svg rpl="" fill="white" height="16" icon-name="star" viewBox="0 0 20 20" width="16" xmlns="http://www.w3.org/2000/svg"> <!--?lit$5895372438$--><!--?lit$5895372438$--><path d="M10 2.8l.04.027 1.641 4.003.422 1.029 1.109.083 4.336.325a.062.062 0 01.002.075l-3.3 2.798-.848.719.263 1.08 1.031 4.225c-.005.012-.026.028-.052.028-.006 0-.012 0-.018-.003l-3.681-2.274-.946-.584-.946.584-3.699 2.286c-.016-.002-.045-.023-.046-.059l1.025-4.203.263-1.08-.848-.719-3.317-2.812c-.003-.015.008-.05.042-.062l4.314-.324 1.109-.083.422-1.029 1.649-4.024s.014-.006.032-.006M10 1c-.696 0-1.392.381-1.705 1.144L6.654 6.147l-4.314.324C.696 6.594.029 8.648 1.286 9.714l3.3 2.798-1.025 4.203C3.258 17.958 4.242 19 5.354 19c.321 0 .652-.087.966-.281l3.681-2.274 3.681 2.274c.314.194.645.281.966.281 1.111 0 2.096-1.043 1.793-2.285l-1.025-4.203 3.3-2.798c1.257-1.066.59-3.12-1.054-3.243l-4.314-.324-1.641-4.003A1.817 1.817 0 0010.002 1H10z"></path><!--?--> </svg>
